<svg width="110" height="111" viewBox="0 0 110 111" fill="none" xmlns="http://www.w3.org/2000/svg">
<g clip-path="url(#clip0_1620_1043)">
<path fill-rule="evenodd" clip-rule="evenodd" d="M52.0461 9.47536C53.5649 8.62312 55.4349 8.62312 56.9515 9.47536C64.4561 13.6873 87.0392 26.3657 94.546 30.5777C96.0648 31.4277 96.9998 33.0024 96.9998 34.7069C96.9998 43.1308 96.9998 68.4854 96.9998 76.9093C96.9998 78.6138 96.0648 80.1885 94.546 81.0407C87.0414 85.2527 64.4583 97.9311 56.9515 102.143C55.4327 102.995 53.5627 102.995 52.0461 102.143C44.5415 97.9311 21.9584 85.2527 14.4516 81.0407C12.935 80.1885 12 78.616 12 76.9115C12 68.4876 12 43.133 12 34.7091C12 33.0046 12.935 31.4299 14.4538 30.5777C21.9562 26.3657 44.5437 13.6873 52.0461 9.47536Z" fill="#D4CFCF"/>
<path fill-rule="evenodd" clip-rule="evenodd" d="M95.8478 31.6626C97.002 32.743 96.9796 34.3714 96.9796 35.6531C96.9796 44.1419 96.9081 68.2863 96.9998 76.7751C97.0087 77.6609 96.7157 78.5937 96.2773 79.296L53.5895 55.8093L95.8478 31.6626Z" fill="#E4E3E3"/>
<path fill-rule="evenodd" clip-rule="evenodd" d="M12.68 79.0812C12.085 78.2849 12 77.5289 12 76.5111C12 68.1364 12 42.9272 12 34.5503C12 32.8547 12.9328 31.289 14.4471 30.4434C21.9248 26.2561 44.4319 13.6515 51.9096 9.46191C53.424 8.61414 55.4752 8.63204 56.9895 9.4798C64.4672 13.6672 86.8982 26.1644 94.376 30.3517C94.9799 30.6917 95.4407 31.1011 95.8523 31.6401L12.68 79.0812Z" fill="#F6F5F5"/>
<path d="M81.4632 39.8821C76.0082 30.6731 65.9702 24.4934 54.4999 24.4934C37.2159 24.4934 23.1842 38.5251 23.1842 55.8091C23.1842 73.0932 37.2159 87.1248 54.4999 87.1248C66.1551 87.1248 76.3314 80.7443 81.7234 71.2885L68.0012 63.7385C65.278 68.3616 60.2483 71.467 54.4999 71.467C45.859 71.467 38.8421 64.45 38.8421 55.8091C38.8421 47.166 45.8568 40.1513 54.4999 40.1513C60.1538 40.1513 65.1125 43.1545 67.8651 47.6521L81.4632 39.8821Z" fill="black"/>
</g>
<defs>
<clipPath id="clip0_1620_1043">
<rect width="85" height="93.9472" fill="white" transform="translate(12 8.83496)"/>
</clipPath>
</defs>
</svg>
