<svg width="110" height="111" viewBox="0 0 110 111" fill="none" xmlns="http://www.w3.org/2000/svg">
<path d="M23.2634 21.3873C22.5159 25.5484 21.868 29.1045 21.8182 29.2695C21.7351 29.5811 23.1969 29.5995 50.8212 29.5995C78.4454 29.5995 79.9072 29.6178 79.8241 29.9111C79.7743 30.0944 79.4421 32.0191 79.06 34.1822C78.678 36.3452 78.2959 38.5082 78.1962 38.9848L78.0301 39.8647L48.9441 39.9014L19.8581 39.9564L18.496 47.6553C17.7319 51.8897 17.1173 55.4093 17.1173 55.4826C17.1006 55.5742 30.1736 55.6292 46.1534 55.6292H75.1896L73.6448 64.1897C72.781 68.9191 72.0501 72.9518 72.0003 73.1718C71.9173 73.5384 70.605 74.0517 60.3393 77.8095C53.9773 80.1192 48.6783 82.0256 48.5621 82.0256C48.3793 82.0256 28.3962 73.6667 28.2965 73.5384C28.2799 73.5201 28.5457 71.907 28.9111 69.9456C29.26 67.9842 29.559 66.2244 29.559 66.0411C29.559 65.7295 29.2434 65.7112 22.466 65.7478L15.3731 65.8028L13.6622 75.2249C12.7319 80.4125 11.9678 84.6652 12.001 84.6836C12.0177 84.7019 19.5757 87.8915 28.7949 91.7776L45.5554 98.835L64.7579 91.7776C75.3225 87.9098 84.0267 84.6652 84.0932 84.5919C84.1929 84.4819 96.9668 14.4765 97 13.8716C97 13.8533 80.7211 13.835 60.8044 13.835H24.6255L23.2634 21.3873Z" fill="white"/>
</svg>
