<svg width="821" height="379" viewBox="0 0 821 379" fill="none" xmlns="http://www.w3.org/2000/svg">
<g clip-path="url(#clip0_1413_761)">
<path d="M190.499 71.07C232.257 74.8645 259.077 78.6849 298.831 91.569C330.563 101.853 371.467 106.332 407.428 112.326C425.763 115.382 445.346 116.322 463.914 116.967C486.668 117.757 511.354 113.897 533.792 118.127C586.273 128.02 639.407 148.613 681.771 180.269C736.766 221.363 777.147 276.898 781.616 345.55C785.06 398.458 967.322 475.23 927.245 509.326C866.026 561.409 572.469 549.667 494.411 551.185C447.567 552.096 402.826 558.731 357.969 571.941C317.672 583.81 287.866 603.582 254.543 627.508C225.633 648.266 193.9 666.06 160.267 678.433C130.117 689.525 94.8511 689.094 63.0734 687.458C16.9334 685.083 -40.1924 679.103 -80.6616 654.969C-114.755 634.637 -140.788 600.964 -163.402 569.879C-180.619 546.212 -196.848 518.343 -179.712 491.879C-169.512 476.129 -156.02 462.851 -146.297 446.498C-133.334 424.696 -122.654 403.694 -112.75 380.36C-85.4309 315.997 -83.7488 244.375 -52.5511 181.3C-40.7803 157.502 -22.3525 137.719 -1.76654 120.706C21.7533 101.268 53.6848 79.8684 84.0241 72.2303C117.032 63.9203 157.089 68.0341 190.499 71.07Z" fill="white" stroke="white" stroke-width="3" stroke-linecap="round"/>
<path d="M509.495 230.421C509.026 231.104 508.093 231.278 507.41 230.809C506.726 230.34 506.553 229.407 507.022 228.724C507.49 228.041 508.424 227.867 509.107 228.336C509.79 228.804 509.964 229.738 509.495 230.421Z" fill="black"/>
<path d="M212.044 144.141C211.054 144.719 209.688 144.52 208.994 143.696C208.299 142.873 208.538 141.737 209.528 141.159C210.518 140.581 211.883 140.78 212.578 141.603C213.272 142.427 213.033 143.563 212.044 144.141Z" fill="black"/>
<path d="M115.044 90.141C114.054 90.719 112.688 90.52 111.994 89.6965C111.299 88.873 111.538 87.7369 112.528 87.1589C113.518 86.5809 114.883 86.7799 115.578 87.6034C116.272 88.4268 116.033 89.563 115.044 90.141Z" fill="black"/>
<path d="M292.175 240C291.282 240.521 290.05 240.342 289.423 239.599C288.796 238.856 289.012 237.831 289.905 237.309C290.798 236.788 292.03 236.967 292.657 237.71C293.284 238.453 293.068 239.478 292.175 240Z" fill="black"/>
<path d="M529.499 343.047C530.455 342.653 531.651 342.999 532.17 343.821C532.689 344.643 532.335 345.629 531.379 346.023C530.423 346.418 529.227 346.071 528.708 345.249C528.189 344.427 528.543 343.441 529.499 343.047Z" fill="black"/>
<path d="M647.499 291.047C648.455 290.653 649.651 290.999 650.17 291.821C650.689 292.643 650.335 293.629 649.379 294.023C648.423 294.418 647.227 294.071 646.708 293.249C646.189 292.427 646.543 291.441 647.499 291.047Z" fill="black"/>
<path d="M542.361 178.993C541.892 179.676 540.959 179.85 540.276 179.381C539.593 178.913 539.419 177.979 539.888 177.296C540.356 176.613 541.29 176.439 541.973 176.908C542.656 177.377 542.83 178.31 542.361 178.993Z" fill="black"/>
<path d="M329.973 357.903C329.294 358.379 328.359 358.215 327.883 357.537C327.407 356.859 327.571 355.924 328.249 355.448C328.927 354.972 329.863 355.136 330.339 355.814C330.814 356.492 330.651 357.427 329.973 357.903Z" fill="black"/>
<path d="M404.997 207.016C404.425 207.418 403.635 207.279 403.233 206.707C402.831 206.134 402.969 205.344 403.542 204.942C404.114 204.54 404.905 204.679 405.306 205.251C405.708 205.824 405.57 206.614 404.997 207.016Z" fill="black"/>
<path d="M283.242 99.5927C282.253 100.171 280.887 99.9717 280.192 99.1482C279.498 98.3247 279.737 97.1886 280.727 96.6106C281.716 96.0326 283.082 96.2316 283.776 97.0551C284.471 97.8786 284.232 99.0147 283.242 99.5927Z" fill="black"/>
<path d="M186.242 45.5926C185.253 46.1706 183.887 45.9716 183.192 45.1481C182.498 44.3247 182.737 43.1886 183.727 42.6106C184.716 42.0326 186.082 42.2315 186.776 43.055C187.471 43.8785 187.232 45.0146 186.242 45.5926Z" fill="black"/>
<path d="M356.417 199.804C355.524 200.325 354.292 200.146 353.665 199.403C353.039 198.66 353.254 197.635 354.147 197.113C355.04 196.592 356.272 196.771 356.899 197.514C357.526 198.257 357.31 199.282 356.417 199.804Z" fill="black"/>
<path d="M460.359 374.07C461.315 373.676 462.511 374.022 463.03 374.844C463.549 375.666 463.195 376.652 462.239 377.046C461.283 377.441 460.087 377.094 459.568 376.272C459.049 375.451 459.403 374.465 460.359 374.07Z" fill="black"/>
<path d="M578.359 322.07C579.315 321.676 580.511 322.022 581.03 322.844C581.549 323.666 581.195 324.652 580.239 325.046C579.283 325.441 578.087 325.094 577.568 324.272C577.049 323.451 577.403 322.465 578.359 322.07Z" fill="black"/>
<path d="M509.914 178.558C509.445 179.241 508.512 179.414 507.829 178.946C507.146 178.477 506.972 177.543 507.441 176.86C507.909 176.177 508.843 176.003 509.526 176.472C510.209 176.941 510.383 177.875 509.914 178.558Z" fill="black"/>
<path d="M299.728 346.145C299.05 346.621 298.114 346.457 297.638 345.779C297.162 345.101 297.326 344.165 298.004 343.689C298.682 343.213 299.618 343.377 300.094 344.055C300.57 344.733 300.406 345.669 299.728 346.145Z" fill="black"/>
<path d="M379.455 197.086C378.882 197.488 378.092 197.349 377.69 196.777C377.288 196.204 377.427 195.414 377.999 195.012C378.572 194.61 379.362 194.748 379.764 195.321C380.166 195.894 380.028 196.684 379.455 197.086Z" fill="black"/>
<path d="M239.097 85.3128C238.107 85.8908 236.742 85.6918 236.047 84.8684C235.352 84.0449 235.591 82.9088 236.581 82.3308C237.571 81.7528 238.936 81.9518 239.631 82.7752C240.326 83.5987 240.087 84.7348 239.097 85.3128Z" fill="black"/>
<path d="M142.097 31.3128C141.107 31.8908 139.742 31.6918 139.047 30.8684C138.352 30.0449 138.591 28.9088 139.581 28.3308C140.571 27.7528 141.936 27.9518 142.631 28.7752C143.326 29.5987 143.087 30.7348 142.097 31.3128Z" fill="black"/>
<path d="M316.585 186.919C315.692 187.441 314.46 187.261 313.833 186.518C313.206 185.775 313.422 184.75 314.315 184.229C315.208 183.707 316.44 183.887 317.067 184.63C317.694 185.373 317.478 186.398 316.585 186.919Z" fill="black"/>
<path d="M616.052 340.286C617.008 339.892 618.204 340.238 618.723 341.06C619.243 341.882 618.888 342.868 617.932 343.262C616.976 343.657 615.781 343.31 615.261 342.488C614.742 341.667 615.096 340.681 616.052 340.286Z" fill="black"/>
<path d="M445.534 371.284C444.706 371.284 444.034 370.613 444.034 369.784C444.034 368.956 444.706 368.284 445.534 368.284C446.363 368.284 447.034 368.956 447.034 369.784C447.034 370.613 446.363 371.284 445.534 371.284Z" fill="black"/>
<path d="M485.874 192.381C485.406 193.064 484.472 193.238 483.789 192.769C483.106 192.3 482.932 191.366 483.401 190.683C483.869 190 484.803 189.827 485.486 190.295C486.169 190.764 486.343 191.698 485.874 192.381Z" fill="black"/>
<path d="M272.371 350.686C271.693 351.162 270.758 350.998 270.282 350.32C269.806 349.642 269.97 348.706 270.648 348.23C271.326 347.754 272.261 347.918 272.737 348.596C273.213 349.274 273.049 350.21 272.371 350.686Z" fill="black"/>
<path d="M356.352 200.92C355.779 201.322 354.989 201.184 354.587 200.611C354.185 200.039 354.323 199.249 354.896 198.847C355.469 198.445 356.259 198.583 356.661 199.156C357.063 199.728 356.924 200.519 356.352 200.92Z" fill="black"/>
<path d="M199.167 90.8275C198.177 91.4055 196.812 91.2065 196.117 90.3831C195.422 89.5596 195.661 88.4235 196.651 87.8455C197.641 87.2675 199.006 87.4664 199.701 88.2899C200.396 89.1134 200.157 90.2495 199.167 90.8275Z" fill="black"/>
<path d="M102.167 36.8275C101.177 37.4055 99.8121 37.2065 99.1171 36.383C98.4221 35.5595 98.6611 34.4234 99.6511 33.8454C100.641 33.2674 102.006 33.4664 102.701 34.2899C103.396 35.1133 103.157 36.2495 102.167 36.8275Z" fill="black"/>
<path d="M280.556 191.895C279.663 192.417 278.431 192.237 277.804 191.494C277.177 190.751 277.393 189.726 278.286 189.204C279.179 188.683 280.411 188.862 281.038 189.605C281.665 190.348 281.449 191.374 280.556 191.895Z" fill="black"/>
<path d="M652.423 340.289C653.379 339.895 654.575 340.242 655.094 341.063C655.613 341.885 655.259 342.871 654.303 343.266C653.347 343.66 652.151 343.313 651.632 342.492C651.113 341.67 651.467 340.684 652.423 340.289Z" fill="black"/>
<path d="M548.991 222.353C548.522 223.036 547.588 223.21 546.905 222.741C546.222 222.272 546.048 221.338 546.517 220.655C546.986 219.972 547.92 219.799 548.603 220.267C549.286 220.736 549.459 221.67 548.991 222.353Z" fill="black"/>
<path d="M397.433 243.279C396.861 243.681 396.071 243.543 395.669 242.97C395.267 242.398 395.405 241.607 395.978 241.206C396.55 240.804 397.34 240.942 397.742 241.515C398.144 242.087 398.006 242.877 397.433 243.279Z" fill="black"/>
<path d="M270.169 151.74C269.179 152.318 267.814 152.119 267.119 151.295C266.424 150.472 266.664 149.336 267.653 148.758C268.643 148.18 270.008 148.379 270.703 149.202C271.398 150.026 271.159 151.162 270.169 151.74Z" fill="black"/>
<path d="M173.169 97.7401C172.179 98.3181 170.814 98.1191 170.119 97.2956C169.424 96.4721 169.664 95.336 170.653 94.758C171.643 94.18 173.008 94.379 173.703 95.2025C174.398 96.0259 174.159 97.1621 173.169 97.7401Z" fill="black"/>
<path d="M344.621 246.856C343.728 247.378 342.496 247.198 341.869 246.455C341.243 245.712 341.458 244.687 342.351 244.166C343.244 243.644 344.476 243.824 345.103 244.567C345.73 245.31 345.514 246.335 344.621 246.856Z" fill="black"/>
<path d="M454.423 252.998C455.379 252.604 456.575 252.95 457.094 253.772C457.613 254.594 457.259 255.58 456.303 255.974C455.347 256.369 454.151 256.022 453.632 255.2C453.113 254.379 453.467 253.393 454.423 252.998Z" fill="black"/>
<path d="M454.423 252.998C455.379 252.604 456.575 252.95 457.094 253.772C457.613 254.594 457.259 255.58 456.303 255.974C455.347 256.369 454.151 256.022 453.632 255.2C453.113 254.379 453.467 253.393 454.423 252.998Z" fill="black"/>
<path d="M516.362 112.474C517.318 112.08 518.513 112.426 519.033 113.248C519.552 114.07 519.198 115.056 518.242 115.45C517.286 115.845 516.09 115.498 515.571 114.676C515.051 113.854 515.406 112.869 516.362 112.474Z" fill="black"/>
<path d="M596.485 277.076C597.441 276.681 598.637 277.028 599.156 277.849C599.675 278.671 599.321 279.657 598.365 280.052C597.409 280.446 596.213 280.099 595.694 279.278C595.175 278.456 595.529 277.47 596.485 277.076Z" fill="black"/>
<path d="M658.423 136.551C659.379 136.157 660.575 136.504 661.094 137.325C661.613 138.147 661.259 139.133 660.303 139.527C659.347 139.922 658.151 139.575 657.632 138.754C657.113 137.932 657.467 136.946 658.423 136.551Z" fill="black"/>
<path d="M479.473 318.76C478.644 318.76 477.973 318.089 477.973 317.26C477.973 316.432 478.644 315.76 479.473 315.76C480.301 315.76 480.973 316.432 480.973 317.26C480.973 318.089 480.301 318.76 479.473 318.76Z" fill="black"/>
<path d="M542.59 265.26C542.121 265.943 541.187 266.117 540.504 265.648C539.821 265.179 539.647 264.246 540.116 263.563C540.585 262.88 541.518 262.706 542.202 263.175C542.885 263.643 543.058 264.577 542.59 265.26Z" fill="black"/>
<path d="M604.528 124.736C604.059 125.419 603.126 125.593 602.442 125.124C601.759 124.655 601.586 123.722 602.054 123.038C602.523 122.355 603.457 122.182 604.14 122.65C604.823 123.119 604.997 124.053 604.528 124.736Z" fill="black"/>
<path d="M361.949 298.276C361.271 298.752 360.335 298.588 359.859 297.91C359.383 297.232 359.547 296.296 360.225 295.82C360.903 295.344 361.839 295.508 362.315 296.186C362.791 296.864 362.627 297.8 361.949 298.276Z" fill="black"/>
<path d="M441.632 134.811C441.059 135.213 440.269 135.075 439.867 134.502C439.465 133.929 439.604 133.139 440.176 132.737C440.749 132.335 441.539 132.474 441.941 133.046C442.343 133.619 442.205 134.409 441.632 134.811Z" fill="black"/>
<path d="M239.509 197.837C238.519 198.415 237.154 198.216 236.459 197.392C235.764 196.569 236.004 195.433 236.993 194.855C237.983 194.277 239.349 194.476 240.043 195.299C240.738 196.123 240.499 197.259 239.509 197.837Z" fill="black"/>
<path d="M301.447 57.3128C300.458 57.8908 299.092 57.6918 298.398 56.8684C297.703 56.0449 297.942 54.9088 298.932 54.3308C299.921 53.7528 301.287 53.9518 301.982 54.7752C302.676 55.5987 302.437 56.7348 301.447 57.3128Z" fill="black"/>
<path d="M23.4474 332.313C22.4577 332.891 21.0923 332.692 20.3976 331.868C19.7029 331.045 19.942 329.909 20.9317 329.331C21.9215 328.753 23.2869 328.952 23.9816 329.775C24.6763 330.599 24.4371 331.735 23.4474 332.313Z" fill="black"/>
<path d="M142.509 143.837C141.519 144.415 140.154 144.216 139.459 143.392C138.764 142.569 139.004 141.433 139.993 140.855C140.983 140.277 142.349 140.476 143.043 141.299C143.738 142.123 143.499 143.259 142.509 143.837Z" fill="black"/>
<path d="M204.447 3.31285C203.458 3.89085 202.092 3.69186 201.398 2.86838C200.703 2.04491 200.942 0.908792 201.932 0.330791C202.921 -0.247211 204.287 -0.0482174 204.982 0.775255C205.676 1.59873 205.437 2.73485 204.447 3.31285Z" fill="black"/>
<path d="M316.957 288.45C316.064 288.971 314.832 288.792 314.205 288.049C313.578 287.306 313.794 286.28 314.687 285.759C315.58 285.237 316.812 285.417 317.439 286.16C318.066 286.903 317.85 287.928 316.957 288.45Z" fill="black"/>
<path d="M393.582 343.661C394.538 343.267 395.734 343.613 396.254 344.435C396.773 345.257 396.419 346.243 395.463 346.637C394.507 347.031 393.311 346.685 392.792 345.863C392.272 345.041 392.626 344.055 393.582 343.661Z" fill="black"/>
<path d="M511.582 291.661C512.538 291.267 513.734 291.613 514.254 292.435C514.773 293.257 514.419 294.243 513.463 294.637C512.507 295.031 511.311 294.685 510.792 293.863C510.272 293.041 510.626 292.055 511.582 291.661Z" fill="black"/>
<path d="M629.582 239.661C630.538 239.267 631.734 239.613 632.254 240.435C632.773 241.257 632.419 242.243 631.463 242.637C630.507 243.031 629.311 242.685 628.792 241.863C628.272 241.041 628.626 240.055 629.582 239.661Z" fill="black"/>
<path d="M565.337 306.34C564.869 307.023 563.935 307.196 563.252 306.728C562.569 306.259 562.395 305.325 562.864 304.642C563.333 303.959 564.266 303.785 564.949 304.254C565.632 304.723 565.806 305.657 565.337 306.34Z" fill="black"/>
<path d="M385.555 314.556C384.983 314.958 384.193 314.82 383.791 314.247C383.389 313.675 383.527 312.885 384.1 312.483C384.672 312.081 385.462 312.219 385.864 312.792C386.266 313.364 386.128 314.155 385.555 314.556Z" fill="black"/>
<path d="M249.64 254.238C248.65 254.816 247.285 254.617 246.59 253.793C245.896 252.97 246.135 251.834 247.124 251.256C248.114 250.678 249.48 250.877 250.174 251.7C250.869 252.524 250.63 253.66 249.64 254.238Z" fill="black"/>
<path d="M152.64 200.238C151.65 200.816 150.285 200.617 149.59 199.793C148.896 198.97 149.135 197.834 150.124 197.256C151.114 196.678 152.48 196.877 153.174 197.7C153.869 198.524 153.63 199.66 152.64 200.238Z" fill="black"/>
<path d="M326.098 339.34C325.205 339.861 323.973 339.682 323.346 338.939C322.719 338.196 322.935 337.171 323.828 336.649C324.721 336.128 325.953 336.307 326.58 337.05C327.207 337.793 326.991 338.818 326.098 339.34Z" fill="black"/>
<path d="M391.494 291.998C392.45 291.604 393.646 291.95 394.165 292.772C394.684 293.594 394.33 294.58 393.374 294.974C392.418 295.369 391.222 295.022 390.703 294.2C390.184 293.379 390.538 292.393 391.494 291.998Z" fill="black"/>
<path d="M509.494 239.998C510.45 239.604 511.646 239.95 512.165 240.772C512.684 241.594 512.33 242.58 511.374 242.974C510.418 243.369 509.222 243.022 508.703 242.2C508.184 241.379 508.538 240.393 509.494 239.998Z" fill="black"/>
<path d="M636.162 190.2C637.118 189.806 638.314 190.153 638.833 190.974C639.353 191.796 638.998 192.782 638.042 193.176C637.086 193.571 635.891 193.224 635.371 192.403C634.852 191.581 635.206 190.595 636.162 190.2Z" fill="black"/>
</g>
<defs>
<clipPath id="clip0_1413_761">
<rect width="846" height="379" fill="white" transform="translate(-25)"/>
</clipPath>
</defs>
</svg>
