<svg width="186" height="42" viewBox="0 0 186 42" fill="none" xmlns="http://www.w3.org/2000/svg">
<path d="M0 4.83496C0 2.62582 1.79086 0.834961 4 0.834961H10V41.835H4C1.79086 41.835 0 40.0441 0 37.835V4.83496Z" fill="white"/>
<rect width="148" height="41" transform="translate(10 0.834961)" fill="white"/>
<path d="M18.7461 29.835V13.835H29.3398V16.624H22.1289V20.4365H28.6367V23.2256H22.1289V29.835H18.7461ZM31.3594 29.835V17.835H34.5859V19.9287H34.7109C34.9297 19.1839 35.2969 18.6214 35.8125 18.2412C36.3281 17.8558 36.9219 17.6631 37.5938 17.6631C37.7604 17.6631 37.9401 17.6735 38.1328 17.6943C38.3255 17.7152 38.4948 17.7438 38.6406 17.7803V20.7334C38.4844 20.6865 38.2682 20.6449 37.9922 20.6084C37.7161 20.5719 37.4635 20.5537 37.2344 20.5537C36.7448 20.5537 36.3073 20.6605 35.9219 20.874C35.5417 21.0824 35.2396 21.374 35.0156 21.749C34.7969 22.124 34.6875 22.5563 34.6875 23.0459V29.835H31.3594ZM43.4395 30.0615C42.6738 30.0615 41.9915 29.9287 41.3926 29.6631C40.7936 29.3923 40.3197 28.9938 39.9707 28.4678C39.627 27.9365 39.4551 27.2751 39.4551 26.4834C39.4551 25.8167 39.5775 25.2568 39.8223 24.8037C40.0671 24.3506 40.4004 23.986 40.8223 23.71C41.2441 23.4339 41.7233 23.2256 42.2598 23.085C42.8014 22.9443 43.3691 22.8454 43.9629 22.7881C44.6608 22.7152 45.2233 22.6475 45.6504 22.585C46.0775 22.5173 46.3874 22.4183 46.5801 22.2881C46.7728 22.1579 46.8691 21.9652 46.8691 21.71V21.6631C46.8691 21.1683 46.7129 20.7855 46.4004 20.5146C46.0931 20.2438 45.6556 20.1084 45.0879 20.1084C44.4889 20.1084 44.0124 20.2412 43.6582 20.5068C43.304 20.7673 43.0697 21.0954 42.9551 21.4912L39.877 21.2412C40.0332 20.512 40.3405 19.8818 40.7988 19.3506C41.2572 18.8141 41.8483 18.4027 42.5723 18.1162C43.3014 17.8245 44.1452 17.6787 45.1035 17.6787C45.7702 17.6787 46.4082 17.7568 47.0176 17.9131C47.6322 18.0693 48.1764 18.3115 48.6504 18.6396C49.1296 18.9678 49.5072 19.3896 49.7832 19.9053C50.0592 20.4157 50.1973 21.0277 50.1973 21.7412V29.835H47.041V28.1709H46.9473C46.7546 28.5459 46.4967 28.8766 46.1738 29.1631C45.8509 29.4443 45.4629 29.6657 45.0098 29.8271C44.5566 29.9834 44.0332 30.0615 43.4395 30.0615ZM44.3926 27.7646C44.8822 27.7646 45.3145 27.6683 45.6895 27.4756C46.0645 27.2777 46.3587 27.012 46.5723 26.6787C46.7858 26.3454 46.8926 25.9678 46.8926 25.5459V24.2725C46.7884 24.3402 46.6452 24.4027 46.4629 24.46C46.2858 24.512 46.0853 24.5615 45.8613 24.6084C45.6374 24.6501 45.4134 24.6891 45.1895 24.7256C44.9655 24.7568 44.7624 24.7855 44.5801 24.8115C44.1895 24.8688 43.8483 24.96 43.5566 25.085C43.265 25.21 43.0384 25.3792 42.877 25.5928C42.7155 25.8011 42.6348 26.0615 42.6348 26.374C42.6348 26.8271 42.7988 27.1735 43.127 27.4131C43.4603 27.6475 43.8822 27.7646 44.3926 27.7646ZM52.7793 29.835V17.835H55.9512V19.9521H56.0918C56.3418 19.249 56.7585 18.6943 57.3418 18.2881C57.9251 17.8818 58.623 17.6787 59.4355 17.6787C60.2585 17.6787 60.959 17.8844 61.5371 18.2959C62.1152 18.7021 62.5007 19.2542 62.6934 19.9521H62.8184C63.0632 19.2646 63.5059 18.7152 64.1465 18.3037C64.7923 17.887 65.5553 17.6787 66.4355 17.6787C67.5553 17.6787 68.4642 18.0355 69.1621 18.749C69.8652 19.4574 70.2168 20.4626 70.2168 21.7646V29.835H66.8965V22.4209C66.8965 21.7542 66.7194 21.2542 66.3652 20.9209C66.0111 20.5876 65.5684 20.4209 65.0371 20.4209C64.4329 20.4209 63.9616 20.6136 63.623 20.999C63.2845 21.3792 63.1152 21.8818 63.1152 22.5068V29.835H59.8887V22.3506C59.8887 21.762 59.7194 21.2933 59.3809 20.9443C59.0475 20.5954 58.6074 20.4209 58.0605 20.4209C57.6908 20.4209 57.3574 20.5146 57.0605 20.7021C56.7689 20.8844 56.5371 21.1423 56.3652 21.4756C56.1934 21.8037 56.1074 22.1891 56.1074 22.6318V29.835H52.7793ZM78.3145 30.0693C77.0801 30.0693 76.0176 29.8193 75.127 29.3193C74.2415 28.8141 73.5592 28.1006 73.0801 27.1787C72.6009 26.2516 72.3613 25.1553 72.3613 23.8896C72.3613 22.6553 72.6009 21.5719 73.0801 20.6396C73.5592 19.7074 74.2337 18.9808 75.1035 18.46C75.9785 17.9391 77.0046 17.6787 78.1816 17.6787C78.9733 17.6787 79.7103 17.8063 80.3926 18.0615C81.0801 18.3115 81.679 18.6891 82.1895 19.1943C82.7051 19.6995 83.1061 20.335 83.3926 21.1006C83.679 21.861 83.8223 22.7516 83.8223 23.7725V24.6865H73.6895V22.624H80.6895C80.6895 22.1449 80.5853 21.7204 80.377 21.3506C80.1686 20.9808 79.8796 20.6917 79.5098 20.4834C79.1452 20.2699 78.7207 20.1631 78.2363 20.1631C77.7311 20.1631 77.2832 20.2803 76.8926 20.5146C76.5072 20.7438 76.2051 21.0537 75.9863 21.4443C75.7676 21.8298 75.6556 22.2594 75.6504 22.7334V24.6943C75.6504 25.2881 75.7598 25.8011 75.9785 26.2334C76.2025 26.6657 76.5176 26.999 76.9238 27.2334C77.3301 27.4678 77.8118 27.585 78.3691 27.585C78.7389 27.585 79.0775 27.5329 79.3848 27.4287C79.6921 27.3245 79.9551 27.1683 80.1738 26.96C80.3926 26.7516 80.5592 26.4964 80.6738 26.1943L83.752 26.3975C83.5957 27.137 83.2754 27.7829 82.791 28.335C82.3118 28.8818 81.6921 29.3089 80.9316 29.6162C80.1764 29.9183 79.304 30.0693 78.3145 30.0693ZM88.2754 29.835L85.0098 17.835H88.377L90.2363 25.8975H90.3457L92.2832 17.835H95.5879L97.5566 25.8506H97.6582L99.4863 17.835H102.846L99.5879 29.835H96.0645L94.002 22.2881H93.8535L91.791 29.835H88.2754ZM109.742 30.0693C108.529 30.0693 107.479 29.8115 106.594 29.2959C105.714 28.7751 105.034 28.0511 104.555 27.124C104.076 26.1917 103.836 25.111 103.836 23.8818C103.836 22.6423 104.076 21.5589 104.555 20.6318C105.034 19.6995 105.714 18.9756 106.594 18.46C107.479 17.9391 108.529 17.6787 109.742 17.6787C110.956 17.6787 112.003 17.9391 112.883 18.46C113.768 18.9756 114.451 19.6995 114.93 20.6318C115.409 21.5589 115.648 22.6423 115.648 23.8818C115.648 25.111 115.409 26.1917 114.93 27.124C114.451 28.0511 113.768 28.7751 112.883 29.2959C112.003 29.8115 110.956 30.0693 109.742 30.0693ZM109.758 27.4912C110.31 27.4912 110.771 27.335 111.141 27.0225C111.51 26.7048 111.789 26.2725 111.977 25.7256C112.169 25.1787 112.266 24.5563 112.266 23.8584C112.266 23.1605 112.169 22.5381 111.977 21.9912C111.789 21.4443 111.51 21.012 111.141 20.6943C110.771 20.3766 110.31 20.2178 109.758 20.2178C109.201 20.2178 108.732 20.3766 108.352 20.6943C107.977 21.012 107.693 21.4443 107.5 21.9912C107.313 22.5381 107.219 23.1605 107.219 23.8584C107.219 24.5563 107.313 25.1787 107.5 25.7256C107.693 26.2725 107.977 26.7048 108.352 27.0225C108.732 27.335 109.201 27.4912 109.758 27.4912ZM117.813 29.835V17.835H121.039V19.9287H121.164C121.383 19.1839 121.75 18.6214 122.266 18.2412C122.781 17.8558 123.375 17.6631 124.047 17.6631C124.214 17.6631 124.393 17.6735 124.586 17.6943C124.779 17.7152 124.948 17.7438 125.094 17.7803V20.7334C124.938 20.6865 124.721 20.6449 124.445 20.6084C124.169 20.5719 123.917 20.5537 123.688 20.5537C123.198 20.5537 122.76 20.6605 122.375 20.874C121.995 21.0824 121.693 21.374 121.469 21.749C121.25 22.124 121.141 22.5563 121.141 23.0459V29.835H117.813ZM129.83 26.3818L129.838 22.3896H130.322L134.166 17.835H137.986L132.822 23.8662H132.033L129.83 26.3818ZM126.814 29.835V13.835H130.143V29.835H126.814ZM134.314 29.835L130.783 24.6084L133.002 22.2568L138.213 29.835H134.314ZM149.604 21.2568L146.557 21.4443C146.505 21.1839 146.393 20.9495 146.221 20.7412C146.049 20.5277 145.822 20.3584 145.541 20.2334C145.265 20.1032 144.934 20.0381 144.549 20.0381C144.033 20.0381 143.598 20.1475 143.244 20.3662C142.89 20.5798 142.713 20.8662 142.713 21.2256C142.713 21.512 142.827 21.7542 143.057 21.9521C143.286 22.1501 143.679 22.3089 144.236 22.4287L146.408 22.8662C147.575 23.1058 148.445 23.4912 149.018 24.0225C149.59 24.5537 149.877 25.2516 149.877 26.1162C149.877 26.9027 149.645 27.5928 149.182 28.1865C148.723 28.7803 148.093 29.2438 147.291 29.5771C146.494 29.9053 145.575 30.0693 144.533 30.0693C142.945 30.0693 141.679 29.7386 140.736 29.0771C139.799 28.4105 139.249 27.5042 139.088 26.3584L142.361 26.1865C142.46 26.6709 142.7 27.0407 143.08 27.2959C143.46 27.5459 143.947 27.6709 144.541 27.6709C145.124 27.6709 145.593 27.5589 145.947 27.335C146.307 27.1058 146.489 26.8115 146.494 26.4521C146.489 26.1501 146.361 25.9027 146.111 25.71C145.861 25.512 145.476 25.361 144.955 25.2568L142.877 24.8428C141.705 24.6084 140.833 24.2021 140.26 23.624C139.692 23.0459 139.408 22.3089 139.408 21.4131C139.408 20.6423 139.617 19.9782 140.033 19.4209C140.455 18.8636 141.046 18.4339 141.807 18.1318C142.572 17.8298 143.468 17.6787 144.494 17.6787C146.01 17.6787 147.202 17.999 148.072 18.6396C148.947 19.2803 149.458 20.1527 149.604 21.2568Z" fill="black"/>
<path fill-rule="evenodd" clip-rule="evenodd" d="M185.892 11.462C185.689 10.831 185.056 10.321 183.263 9.32704C182.608 8.96855 181.605 8.41358 180.698 7.91134C180.314 7.69913 179.948 7.49634 179.632 7.32177C179.045 6.99258 178.377 6.62126 177.804 6.30229C177.338 6.04336 176.935 5.81893 176.687 5.67952C176.133 5.377 175.139 4.82382 174.489 4.45215C170.919 2.43823 168.37 1.05528 168.044 0.942919C167.829 0.872519 166.059 0.841939 158 0.834961V41.835H167.763L168.176 41.6448C168.396 41.5497 169.838 40.7632 171.385 39.9075C171.916 39.6122 172.598 39.2347 173.34 38.8234C174.749 38.0428 176.377 37.1408 177.61 36.4501C184.652 32.5481 185.397 32.1536 185.692 31.5338C185.742 31.4301 185.778 31.3201 185.83 31.1863C186.006 30.7282 186.006 30.5467 185.997 21.2377C185.988 14.7378 185.962 11.6608 185.892 11.462ZM173.627 24.4859C174.656 23.9868 175.297 23.2244 175.64 22.09C176.282 19.9574 174.849 17.6522 172.651 17.2802C170.066 16.8536 167.816 19.5217 168.589 22.09C168.932 23.2244 169.574 23.9868 170.603 24.4859C171.148 24.7582 171.262 24.7763 172.115 24.7763C172.968 24.7763 173.082 24.7582 173.627 24.4859Z" fill="white"/>
</svg>
