<svg width="137" height="42" viewBox="0 0 137 42" fill="none" xmlns="http://www.w3.org/2000/svg">
<path d="M0 4.83496C0 2.62582 1.79086 0.834961 4 0.834961H10V41.835H4C1.79086 41.835 0 40.0441 0 37.835V4.83496Z" fill="white"/>
<rect width="99" height="41" transform="translate(10 0.834961)" fill="white"/>
<path d="M29.4336 19.0068C29.3242 18.6266 29.1706 18.2907 28.9727 17.999C28.7747 17.7021 28.5326 17.4521 28.2461 17.249C27.9648 17.0407 27.6419 16.8818 27.2773 16.7725C26.918 16.6631 26.5195 16.6084 26.082 16.6084C25.2643 16.6084 24.5456 16.8115 23.9258 17.2178C23.3112 17.624 22.832 18.2152 22.4883 18.9912C22.1445 19.762 21.9727 20.7048 21.9727 21.8193C21.9727 22.9339 22.1419 23.8818 22.4805 24.6631C22.819 25.4443 23.2982 26.0407 23.918 26.4521C24.5378 26.8584 25.2695 27.0615 26.1133 27.0615C26.8789 27.0615 27.5326 26.9261 28.0742 26.6553C28.6211 26.3792 29.0378 25.9912 29.3242 25.4912C29.6159 24.9912 29.7617 24.4001 29.7617 23.7178L30.4492 23.8193H26.3242V21.2725H33.0195V23.2881C33.0195 24.6943 32.7227 25.9027 32.1289 26.9131C31.5352 27.9183 30.7174 28.6943 29.6758 29.2412C28.6341 29.7829 27.4414 30.0537 26.0977 30.0537C24.5977 30.0537 23.2799 29.723 22.1445 29.0615C21.0091 28.3949 20.1237 27.4495 19.4883 26.2256C18.8581 24.9964 18.543 23.5381 18.543 21.8506C18.543 20.5537 18.7305 19.3975 19.1055 18.3818C19.4857 17.361 20.0169 16.4964 20.6992 15.7881C21.3815 15.0798 22.1758 14.5407 23.082 14.1709C23.9883 13.8011 24.9701 13.6162 26.0273 13.6162C26.9336 13.6162 27.7773 13.749 28.5586 14.0146C29.3398 14.2751 30.0326 14.6449 30.6367 15.124C31.2461 15.6032 31.7435 16.1735 32.1289 16.835C32.5143 17.4912 32.7617 18.2152 32.8711 19.0068H29.4336ZM40.9668 30.0693C39.7324 30.0693 38.6699 29.8193 37.7793 29.3193C36.8939 28.8141 36.2116 28.1006 35.7324 27.1787C35.2533 26.2516 35.0137 25.1553 35.0137 23.8896C35.0137 22.6553 35.2533 21.5719 35.7324 20.6396C36.2116 19.7074 36.8861 18.9808 37.7559 18.46C38.6309 17.9391 39.6569 17.6787 40.834 17.6787C41.6257 17.6787 42.3626 17.8063 43.0449 18.0615C43.7324 18.3115 44.3314 18.6891 44.8418 19.1943C45.3574 19.6995 45.7585 20.335 46.0449 21.1006C46.3314 21.861 46.4746 22.7516 46.4746 23.7725V24.6865H36.3418V22.624H43.3418C43.3418 22.1449 43.2376 21.7204 43.0293 21.3506C42.821 20.9808 42.5319 20.6917 42.1621 20.4834C41.7975 20.2699 41.373 20.1631 40.8887 20.1631C40.3835 20.1631 39.9355 20.2803 39.5449 20.5146C39.1595 20.7438 38.8574 21.0537 38.6387 21.4443C38.4199 21.8298 38.3079 22.2594 38.3027 22.7334V24.6943C38.3027 25.2881 38.4121 25.8011 38.6309 26.2334C38.8548 26.6657 39.1699 26.999 39.5762 27.2334C39.9824 27.4678 40.4642 27.585 41.0215 27.585C41.3913 27.585 41.7298 27.5329 42.0371 27.4287C42.3444 27.3245 42.6074 27.1683 42.8262 26.96C43.0449 26.7516 43.2116 26.4964 43.3262 26.1943L46.4043 26.3975C46.248 27.137 45.9277 27.7829 45.4434 28.335C44.9642 28.8818 44.3444 29.3089 43.584 29.6162C42.8288 29.9183 41.9564 30.0693 40.9668 30.0693ZM51.9746 22.8975V29.835H48.6465V17.835H51.8184V19.9521H51.959C52.2246 19.2542 52.6699 18.7021 53.2949 18.2959C53.9199 17.8844 54.6777 17.6787 55.5684 17.6787C56.4017 17.6787 57.1283 17.861 57.748 18.2256C58.3678 18.5902 58.8496 19.111 59.1934 19.7881C59.5371 20.46 59.709 21.262 59.709 22.1943V29.835H56.3809V22.7881C56.3861 22.0537 56.1986 21.4808 55.8184 21.0693C55.4382 20.6527 54.9147 20.4443 54.248 20.4443C53.8001 20.4443 53.4043 20.5407 53.0605 20.7334C52.722 20.9261 52.4564 21.2074 52.2637 21.5771C52.0762 21.9417 51.9798 22.3818 51.9746 22.8975ZM67.8008 30.0693C66.5664 30.0693 65.5039 29.8193 64.6133 29.3193C63.7279 28.8141 63.0456 28.1006 62.5664 27.1787C62.0872 26.2516 61.8477 25.1553 61.8477 23.8896C61.8477 22.6553 62.0872 21.5719 62.5664 20.6396C63.0456 19.7074 63.7201 18.9808 64.5898 18.46C65.4648 17.9391 66.4909 17.6787 67.668 17.6787C68.4596 17.6787 69.1966 17.8063 69.8789 18.0615C70.5664 18.3115 71.1654 18.6891 71.6758 19.1943C72.1914 19.6995 72.5924 20.335 72.8789 21.1006C73.1654 21.861 73.3086 22.7516 73.3086 23.7725V24.6865H63.1758V22.624H70.1758C70.1758 22.1449 70.0716 21.7204 69.8633 21.3506C69.6549 20.9808 69.3659 20.6917 68.9961 20.4834C68.6315 20.2699 68.207 20.1631 67.7227 20.1631C67.2174 20.1631 66.7695 20.2803 66.3789 20.5146C65.9935 20.7438 65.6914 21.0537 65.4727 21.4443C65.2539 21.8298 65.1419 22.2594 65.1367 22.7334V24.6943C65.1367 25.2881 65.2461 25.8011 65.4648 26.2334C65.6888 26.6657 66.0039 26.999 66.4102 27.2334C66.8164 27.4678 67.2982 27.585 67.8555 27.585C68.2253 27.585 68.5638 27.5329 68.8711 27.4287C69.1784 27.3245 69.4414 27.1683 69.6602 26.96C69.8789 26.7516 70.0456 26.4964 70.1602 26.1943L73.2383 26.3975C73.082 27.137 72.7617 27.7829 72.2773 28.335C71.7982 28.8818 71.1784 29.3089 70.418 29.6162C69.6628 29.9183 68.7904 30.0693 67.8008 30.0693ZM75.4805 29.835V17.835H78.707V19.9287H78.832C79.0508 19.1839 79.418 18.6214 79.9336 18.2412C80.4492 17.8558 81.043 17.6631 81.7148 17.6631C81.8815 17.6631 82.0612 17.6735 82.2539 17.6943C82.4466 17.7152 82.6159 17.7438 82.7617 17.7803V20.7334C82.6055 20.6865 82.3893 20.6449 82.1133 20.6084C81.8372 20.5719 81.5846 20.5537 81.3555 20.5537C80.8659 20.5537 80.4284 20.6605 80.043 20.874C79.6628 21.0824 79.3607 21.374 79.1367 21.749C78.918 22.124 78.8086 22.5563 78.8086 23.0459V29.835H75.4805ZM87.5605 30.0615C86.7949 30.0615 86.1126 29.9287 85.5137 29.6631C84.9147 29.3923 84.4408 28.9938 84.0918 28.4678C83.748 27.9365 83.5762 27.2751 83.5762 26.4834C83.5762 25.8167 83.6986 25.2568 83.9434 24.8037C84.1882 24.3506 84.5215 23.986 84.9434 23.71C85.3652 23.4339 85.8444 23.2256 86.3809 23.085C86.9225 22.9443 87.4902 22.8454 88.084 22.7881C88.7819 22.7152 89.3444 22.6475 89.7715 22.585C90.1986 22.5173 90.5085 22.4183 90.7012 22.2881C90.8939 22.1579 90.9902 21.9652 90.9902 21.71V21.6631C90.9902 21.1683 90.834 20.7855 90.5215 20.5146C90.2142 20.2438 89.7767 20.1084 89.209 20.1084C88.61 20.1084 88.1335 20.2412 87.7793 20.5068C87.4251 20.7673 87.1908 21.0954 87.0762 21.4912L83.998 21.2412C84.1543 20.512 84.4616 19.8818 84.9199 19.3506C85.3783 18.8141 85.9694 18.4027 86.6934 18.1162C87.4225 17.8245 88.2663 17.6787 89.2246 17.6787C89.8913 17.6787 90.5293 17.7568 91.1387 17.9131C91.7533 18.0693 92.2975 18.3115 92.7715 18.6396C93.2507 18.9678 93.6283 19.3896 93.9043 19.9053C94.1803 20.4157 94.3184 21.0277 94.3184 21.7412V29.835H91.1621V28.1709H91.0684C90.8757 28.5459 90.6178 28.8766 90.2949 29.1631C89.972 29.4443 89.584 29.6657 89.1309 29.8271C88.6777 29.9834 88.1543 30.0615 87.5605 30.0615ZM88.5137 27.7646C89.0033 27.7646 89.4355 27.6683 89.8105 27.4756C90.1855 27.2777 90.4798 27.012 90.6934 26.6787C90.9069 26.3454 91.0137 25.9678 91.0137 25.5459V24.2725C90.9095 24.3402 90.7663 24.4027 90.584 24.46C90.4069 24.512 90.2064 24.5615 89.9824 24.6084C89.7585 24.6501 89.5345 24.6891 89.3105 24.7256C89.0866 24.7568 88.8835 24.7855 88.7012 24.8115C88.3105 24.8688 87.9694 24.96 87.6777 25.085C87.3861 25.21 87.1595 25.3792 86.998 25.5928C86.8366 25.8011 86.7559 26.0615 86.7559 26.374C86.7559 26.8271 86.9199 27.1735 87.248 27.4131C87.5814 27.6475 88.0033 27.7646 88.5137 27.7646ZM100.229 13.835V29.835H96.9004V13.835H100.229Z" fill="black"/>
<path fill-rule="evenodd" clip-rule="evenodd" d="M136.892 11.462C136.689 10.831 136.056 10.321 134.263 9.32704C133.608 8.96855 132.605 8.41358 131.698 7.91134C131.314 7.69913 130.948 7.49634 130.632 7.32177C130.045 6.99258 129.377 6.62126 128.804 6.30229C128.338 6.04336 127.935 5.81893 127.687 5.67952C127.133 5.377 126.139 4.82382 125.489 4.45215C121.919 2.43823 119.37 1.05528 119.044 0.942919C118.829 0.872519 117.059 0.841939 109 0.834961V41.835H118.763L119.176 41.6448C119.396 41.5497 120.838 40.7632 122.385 39.9075C122.916 39.6122 123.598 39.2347 124.34 38.8234C125.749 38.0428 127.377 37.1408 128.61 36.4501C135.652 32.5481 136.397 32.1536 136.692 31.5338C136.742 31.4301 136.778 31.3201 136.83 31.1863C137.006 30.7282 137.006 30.5467 136.997 21.2377C136.988 14.7378 136.962 11.6608 136.892 11.462ZM124.627 24.4859C125.656 23.9868 126.297 23.2244 126.64 22.09C127.282 19.9574 125.849 17.6522 123.651 17.2802C121.066 16.8536 118.816 19.5217 119.589 22.09C119.932 23.2244 120.574 23.9868 121.603 24.4859C122.148 24.7582 122.262 24.7763 123.115 24.7763C123.968 24.7763 124.082 24.7582 124.627 24.4859Z" fill="white"/>
</svg>
