<svg width="28" height="29" viewBox="0 0 28 29" fill="none" xmlns="http://www.w3.org/2000/svg">
<path fill-rule="evenodd" clip-rule="evenodd" d="M13.9988 1.30168C6.52653 1.30168 0.466675 7.36075 0.466675 14.8355C0.466675 20.8139 4.34402 25.8868 9.72179 27.6771C10.3989 27.8009 10.6456 27.3831 10.6456 27.0242C10.6456 26.7025 10.634 25.8519 10.6274 24.7227C6.86301 25.5403 6.06877 22.9083 6.06877 22.9083C5.45314 21.3448 4.56586 20.9286 4.56586 20.9286C3.3371 20.0895 4.65891 20.1061 4.65891 20.1061C6.01726 20.2017 6.73175 21.5011 6.73175 21.5011C7.9389 23.5688 9.8996 22.9714 10.6706 22.625C10.7935 21.751 11.1433 21.1544 11.5296 20.8164C8.52461 20.474 5.36509 19.3135 5.36509 14.1276C5.36509 12.6496 5.89265 11.4425 6.75833 10.4962C6.61876 10.1539 6.15435 8.77807 6.89126 6.91458C6.89126 6.91458 8.02695 6.55067 10.6124 8.30118C11.6916 8.00126 12.8498 7.85172 14.0004 7.8459C15.1502 7.85172 16.3076 8.00126 17.3884 8.30118C19.9722 6.55067 21.1062 6.91458 21.1062 6.91458C21.8449 8.77807 21.3804 10.1539 21.2417 10.4962C22.109 11.4425 22.6324 12.6496 22.6324 14.1276C22.6324 19.3268 19.4678 20.4709 16.4538 20.8055C16.939 21.2235 17.3718 22.0493 17.3718 23.3121C17.3718 25.1207 17.3552 26.5805 17.3552 27.0242C17.3552 27.3863 17.5995 27.8076 18.2857 27.6754C23.6593 25.8818 27.5333 20.813 27.5333 14.8355C27.5333 7.36075 21.4734 1.30168 13.9988 1.30168Z" fill="black"/>
</svg>
