<svg width="110" height="111" viewBox="0 0 110 111" fill="none" xmlns="http://www.w3.org/2000/svg">
<path d="M23.9781 2.83496H28.7495V7.54916H33.1143V2.83496H37.886V17.1107H33.1145V12.3303H28.7497V17.1107H23.9783L23.9781 2.83496Z" fill="white"/>
<path d="M44.1606 7.56901H39.96V2.83496H53.135V7.56901H48.9325V17.1107H44.1608L44.1606 7.56901Z" fill="white"/>
<path d="M55.2259 2.83496H60.2013L63.2618 7.85103L66.3192 2.83496H71.2964V17.1107H66.5446V10.0349L63.2618 15.1107H63.1797L59.8947 10.0349V17.1107H55.2259V2.83496Z" fill="white"/>
<path d="M73.6711 2.83496H78.444V12.392H85.1541V17.1107H73.6711V2.83496Z" fill="white"/>
<path fill-rule="evenodd" clip-rule="evenodd" d="M17 23.6395L23.8255 100.195L54.4541 108.698L85.1673 100.183L92 23.6395H17ZM42.0756 58.2923H76.2926L76.0635 60.8136L73.7159 87.1186L54.5 92.4443V92.4459L54.4568 92.4579L35.2237 87.1186L33.9083 72.3762H43.3336L44.002 79.8646L54.4589 82.6881L54.4675 82.6858L64.9395 79.8586L66.0293 67.6815H33.4887L30.9563 39.2883H77.9877L77.147 48.6777H41.2175L42.0756 58.2923Z" fill="white"/>
</svg>
