<svg width="110" height="111" viewBox="0 0 110 111" fill="none" xmlns="http://www.w3.org/2000/svg">
<path d="M12 13.835V98.835H97V13.835H12ZM57.5357 79.8617C57.5357 88.136 52.6482 92.1697 45.5731 92.1697C39.1829 92.1697 35.4737 88.8607 33.5915 84.8669L40.0955 80.9299C41.3497 83.1555 42.3021 85.0376 45.04 85.0376C47.3167 85.0376 49.1875 84.0112 49.1875 80.0173V53.2992H57.5357V79.8617ZM76.3856 91.9799C68.969 91.9799 64.1763 88.6331 61.8369 84.0112L68.3504 80.2412C70.058 83.0379 72.2874 84.901 76.2243 84.901C79.5333 84.901 81.4552 83.4363 81.4552 81.1538C81.4552 78.416 79.4763 77.4465 75.824 75.8413L73.828 74.9837C68.064 72.5324 64.2427 69.4511 64.2427 62.9452C64.2427 56.9554 68.8058 52.5802 75.9378 52.5802C81.017 52.5802 84.6655 54.1587 87.2933 58.7806L81.0625 62.7859C79.6926 60.3326 78.2165 59.3707 75.9284 59.3707C73.589 59.3707 72.1052 60.8544 72.1052 62.7859C72.1052 65.1822 73.589 66.1517 77.0117 67.6354L79.0077 68.4911C85.7982 71.4016 89.6213 74.3728 89.6213 81.0438C89.6232 88.2346 83.9749 91.9799 76.3856 91.9799Z" fill="white"/>
</svg>
