<svg width="147" height="42" viewBox="0 0 147 42" fill="none" xmlns="http://www.w3.org/2000/svg">
<path d="M0 4.83496C0 2.62582 1.79086 0.834961 4 0.834961H10V41.835H4C1.79086 41.835 0 40.0441 0 37.835V4.83496Z" fill="white"/>
<rect width="109" height="41" transform="translate(10 0.834961)" fill="white"/>
<path d="M18.7002 29.835V13.835H22.083V27.0459H28.9424V29.835H18.7002ZM31.1201 29.835V17.835H34.4482V29.835H31.1201ZM32.792 16.2881C32.2972 16.2881 31.8727 16.124 31.5186 15.7959C31.1696 15.4626 30.9951 15.0641 30.9951 14.6006C30.9951 14.1423 31.1696 13.749 31.5186 13.4209C31.8727 13.0876 32.2972 12.9209 32.792 12.9209C33.2868 12.9209 33.7087 13.0876 34.0576 13.4209C34.4118 13.749 34.5889 14.1423 34.5889 14.6006C34.5889 15.0641 34.4118 15.4626 34.0576 15.7959C33.7087 16.124 33.2868 16.2881 32.792 16.2881ZM37.1768 29.835V13.835H40.5049V19.8506H40.6064C40.7523 19.5277 40.9632 19.1995 41.2393 18.8662C41.5205 18.5277 41.8851 18.2464 42.333 18.0225C42.7861 17.7933 43.3486 17.6787 44.0205 17.6787C44.8955 17.6787 45.7028 17.9079 46.4424 18.3662C47.182 18.8193 47.7731 19.5042 48.2158 20.4209C48.6585 21.3324 48.8799 22.4756 48.8799 23.8506C48.8799 25.1891 48.6637 26.3193 48.2314 27.2412C47.8044 28.1579 47.221 28.8532 46.4814 29.3271C45.7471 29.7959 44.9242 30.0303 44.0127 30.0303C43.3669 30.0303 42.8174 29.9235 42.3643 29.71C41.9163 29.4964 41.5492 29.2282 41.2627 28.9053C40.9762 28.5771 40.7575 28.2464 40.6064 27.9131H40.458V29.835H37.1768ZM40.4346 23.835C40.4346 24.5485 40.5335 25.1709 40.7314 25.7021C40.9294 26.2334 41.2158 26.6475 41.5908 26.9443C41.9658 27.236 42.4215 27.3818 42.958 27.3818C43.4997 27.3818 43.958 27.2334 44.333 26.9365C44.708 26.6344 44.9919 26.2178 45.1846 25.6865C45.3825 25.1501 45.4814 24.5329 45.4814 23.835C45.4814 23.1423 45.3851 22.5329 45.1924 22.0068C44.9997 21.4808 44.7158 21.0693 44.3408 20.7725C43.9658 20.4756 43.5049 20.3271 42.958 20.3271C42.4163 20.3271 41.958 20.4704 41.583 20.7568C41.2132 21.0433 40.9294 21.4495 40.7314 21.9756C40.5335 22.5016 40.4346 23.1214 40.4346 23.835ZM51.1006 29.835V17.835H54.3271V19.9287H54.4521C54.6709 19.1839 55.0381 18.6214 55.5537 18.2412C56.0693 17.8558 56.6631 17.6631 57.335 17.6631C57.5016 17.6631 57.6813 17.6735 57.874 17.6943C58.0667 17.7152 58.236 17.7438 58.3818 17.7803V20.7334C58.2256 20.6865 58.0094 20.6449 57.7334 20.6084C57.4574 20.5719 57.2048 20.5537 56.9756 20.5537C56.486 20.5537 56.0485 20.6605 55.6631 20.874C55.2829 21.0824 54.9808 21.374 54.7568 21.749C54.5381 22.124 54.4287 22.5563 54.4287 23.0459V29.835H51.1006ZM63.1807 30.0615C62.415 30.0615 61.7327 29.9287 61.1338 29.6631C60.5348 29.3923 60.0609 28.9938 59.7119 28.4678C59.3682 27.9365 59.1963 27.2751 59.1963 26.4834C59.1963 25.8167 59.3187 25.2568 59.5635 24.8037C59.8083 24.3506 60.1416 23.986 60.5635 23.71C60.9854 23.4339 61.4645 23.2256 62.001 23.085C62.5426 22.9443 63.1104 22.8454 63.7041 22.7881C64.402 22.7152 64.9645 22.6475 65.3916 22.585C65.8187 22.5173 66.1286 22.4183 66.3213 22.2881C66.514 22.1579 66.6104 21.9652 66.6104 21.71V21.6631C66.6104 21.1683 66.4541 20.7855 66.1416 20.5146C65.8343 20.2438 65.3968 20.1084 64.8291 20.1084C64.2301 20.1084 63.7536 20.2412 63.3994 20.5068C63.0452 20.7673 62.8109 21.0954 62.6963 21.4912L59.6182 21.2412C59.7744 20.512 60.0817 19.8818 60.54 19.3506C60.9984 18.8141 61.5895 18.4027 62.3135 18.1162C63.0426 17.8245 63.8864 17.6787 64.8447 17.6787C65.5114 17.6787 66.1494 17.7568 66.7588 17.9131C67.3734 18.0693 67.9176 18.3115 68.3916 18.6396C68.8708 18.9678 69.2484 19.3896 69.5244 19.9053C69.8005 20.4157 69.9385 21.0277 69.9385 21.7412V29.835H66.7822V28.1709H66.6885C66.4958 28.5459 66.238 28.8766 65.915 29.1631C65.5921 29.4443 65.2041 29.6657 64.751 29.8271C64.2979 29.9834 63.7744 30.0615 63.1807 30.0615ZM64.1338 27.7646C64.6234 27.7646 65.0557 27.6683 65.4307 27.4756C65.8057 27.2777 66.0999 27.012 66.3135 26.6787C66.527 26.3454 66.6338 25.9678 66.6338 25.5459V24.2725C66.5296 24.3402 66.3864 24.4027 66.2041 24.46C66.027 24.512 65.8265 24.5615 65.6025 24.6084C65.3786 24.6501 65.1546 24.6891 64.9307 24.7256C64.7067 24.7568 64.5036 24.7855 64.3213 24.8115C63.9307 24.8688 63.5895 24.96 63.2979 25.085C63.0062 25.21 62.7796 25.3792 62.6182 25.5928C62.4567 25.8011 62.376 26.0615 62.376 26.374C62.376 26.8271 62.54 27.1735 62.8682 27.4131C63.2015 27.6475 63.6234 27.7646 64.1338 27.7646ZM72.5205 29.835V17.835H75.7471V19.9287H75.8721C76.0908 19.1839 76.458 18.6214 76.9736 18.2412C77.4893 17.8558 78.083 17.6631 78.7549 17.6631C78.9215 17.6631 79.1012 17.6735 79.2939 17.6943C79.4867 17.7152 79.6559 17.7438 79.8018 17.7803V20.7334C79.6455 20.6865 79.4294 20.6449 79.1533 20.6084C78.8773 20.5719 78.6247 20.5537 78.3955 20.5537C77.9059 20.5537 77.4684 20.6605 77.083 20.874C76.7028 21.0824 76.4007 21.374 76.1768 21.749C75.958 22.124 75.8486 22.5563 75.8486 23.0459V29.835H72.5205ZM81.5225 29.835V17.835H84.8506V29.835H81.5225ZM83.1943 16.2881C82.6995 16.2881 82.2751 16.124 81.9209 15.7959C81.5719 15.4626 81.3975 15.0641 81.3975 14.6006C81.3975 14.1423 81.5719 13.749 81.9209 13.4209C82.2751 13.0876 82.6995 12.9209 83.1943 12.9209C83.6891 12.9209 84.111 13.0876 84.46 13.4209C84.8141 13.749 84.9912 14.1423 84.9912 14.6006C84.9912 15.0641 84.8141 15.4626 84.46 15.7959C84.111 16.124 83.6891 16.2881 83.1943 16.2881ZM92.9854 30.0693C91.751 30.0693 90.6885 29.8193 89.7979 29.3193C88.9124 28.8141 88.2301 28.1006 87.751 27.1787C87.2718 26.2516 87.0322 25.1553 87.0322 23.8896C87.0322 22.6553 87.2718 21.5719 87.751 20.6396C88.2301 19.7074 88.9046 18.9808 89.7744 18.46C90.6494 17.9391 91.6755 17.6787 92.8525 17.6787C93.6442 17.6787 94.3812 17.8063 95.0635 18.0615C95.751 18.3115 96.3499 18.6891 96.8604 19.1943C97.376 19.6995 97.777 20.335 98.0635 21.1006C98.3499 21.861 98.4932 22.7516 98.4932 23.7725V24.6865H88.3604V22.624H95.3604C95.3604 22.1449 95.2562 21.7204 95.0479 21.3506C94.8395 20.9808 94.5505 20.6917 94.1807 20.4834C93.8161 20.2699 93.3916 20.1631 92.9072 20.1631C92.402 20.1631 91.9541 20.2803 91.5635 20.5146C91.1781 20.7438 90.876 21.0537 90.6572 21.4443C90.4385 21.8298 90.3265 22.2594 90.3213 22.7334V24.6943C90.3213 25.2881 90.4307 25.8011 90.6494 26.2334C90.8734 26.6657 91.1885 26.999 91.5947 27.2334C92.001 27.4678 92.4827 27.585 93.04 27.585C93.4098 27.585 93.7484 27.5329 94.0557 27.4287C94.363 27.3245 94.626 27.1683 94.8447 26.96C95.0635 26.7516 95.2301 26.4964 95.3447 26.1943L98.4229 26.3975C98.2666 27.137 97.9463 27.7829 97.4619 28.335C96.9827 28.8818 96.363 29.3089 95.6025 29.6162C94.8473 29.9183 93.9749 30.0693 92.9854 30.0693ZM110.649 21.2568L107.603 21.4443C107.55 21.1839 107.438 20.9495 107.267 20.7412C107.095 20.5277 106.868 20.3584 106.587 20.2334C106.311 20.1032 105.98 20.0381 105.595 20.0381C105.079 20.0381 104.644 20.1475 104.29 20.3662C103.936 20.5798 103.759 20.8662 103.759 21.2256C103.759 21.512 103.873 21.7542 104.103 21.9521C104.332 22.1501 104.725 22.3089 105.282 22.4287L107.454 22.8662C108.621 23.1058 109.491 23.4912 110.063 24.0225C110.636 24.5537 110.923 25.2516 110.923 26.1162C110.923 26.9027 110.691 27.5928 110.228 28.1865C109.769 28.7803 109.139 29.2438 108.337 29.5771C107.54 29.9053 106.621 30.0693 105.579 30.0693C103.991 30.0693 102.725 29.7386 101.782 29.0771C100.845 28.4105 100.295 27.5042 100.134 26.3584L103.407 26.1865C103.506 26.6709 103.746 27.0407 104.126 27.2959C104.506 27.5459 104.993 27.6709 105.587 27.6709C106.17 27.6709 106.639 27.5589 106.993 27.335C107.353 27.1058 107.535 26.8115 107.54 26.4521C107.535 26.1501 107.407 25.9027 107.157 25.71C106.907 25.512 106.522 25.361 106.001 25.2568L103.923 24.8428C102.751 24.6084 101.879 24.2021 101.306 23.624C100.738 23.0459 100.454 22.3089 100.454 21.4131C100.454 20.6423 100.662 19.9782 101.079 19.4209C101.501 18.8636 102.092 18.4339 102.853 18.1318C103.618 17.8298 104.514 17.6787 105.54 17.6787C107.056 17.6787 108.248 17.999 109.118 18.6396C109.993 19.2803 110.504 20.1527 110.649 21.2568Z" fill="black"/>
<path fill-rule="evenodd" clip-rule="evenodd" d="M146.892 11.462C146.689 10.831 146.056 10.321 144.263 9.32704C143.608 8.96855 142.605 8.41358 141.698 7.91134C141.314 7.69913 140.948 7.49634 140.632 7.32177C140.045 6.99258 139.377 6.62126 138.804 6.30229C138.338 6.04336 137.935 5.81893 137.687 5.67952C137.133 5.377 136.139 4.82382 135.489 4.45215C131.919 2.43823 129.37 1.05528 129.044 0.942919C128.829 0.872519 127.059 0.841939 119 0.834961V41.835H128.763L129.176 41.6448C129.396 41.5497 130.838 40.7632 132.385 39.9075C132.916 39.6122 133.598 39.2347 134.34 38.8234C135.749 38.0428 137.377 37.1408 138.61 36.4501C145.652 32.5481 146.397 32.1536 146.692 31.5338C146.742 31.4301 146.778 31.3201 146.83 31.1863C147.006 30.7282 147.006 30.5467 146.997 21.2377C146.988 14.7378 146.962 11.6608 146.892 11.462ZM134.627 24.4859C135.656 23.9868 136.297 23.2244 136.64 22.09C137.282 19.9574 135.849 17.6522 133.651 17.2802C131.066 16.8536 128.816 19.5217 129.589 22.09C129.932 23.2244 130.574 23.9868 131.603 24.4859C132.148 24.7582 132.262 24.7763 133.115 24.7763C133.968 24.7763 134.082 24.7582 134.627 24.4859Z" fill="white"/>
</svg>
