<svg width="37" height="37" viewBox="0 0 37 37" fill="none" xmlns="http://www.w3.org/2000/svg">
<path fill-rule="evenodd" clip-rule="evenodd" d="M6.5 8.33505C5.67843 8.33505 5 9.01348 5 9.83505V27.8351C5 28.6566 5.67843 29.3351 6.5 29.3351H30.5C31.3216 29.3351 32 28.6566 32 27.8351V9.83505C32 9.01348 31.3216 8.33505 30.5 8.33505H6.5ZM2 9.83505C2 7.35663 4.02157 5.33505 6.5 5.33505H30.5C32.9784 5.33505 35 7.35663 35 9.83505V27.8351C35 30.3135 32.9784 32.3351 30.5 32.3351H6.5C4.02157 32.3351 2 30.3135 2 27.8351V9.83505Z" fill="white"/>
<path fill-rule="evenodd" clip-rule="evenodd" d="M2.27116 8.97484C2.74623 8.29616 3.68153 8.13111 4.3602 8.60618L18.5 18.504L32.6398 8.60618C33.3185 8.13111 34.2538 8.29616 34.7289 8.97484C35.2039 9.65351 35.0389 10.5888 34.3602 11.0639L19.3602 21.5639C18.8437 21.9254 18.1563 21.9254 17.6398 21.5639L2.63981 11.0639C1.96114 10.5888 1.79609 9.65351 2.27116 8.97484Z" fill="white"/>
</svg>
