<svg width="48" height="49" viewBox="0 0 48 49" fill="none" xmlns="http://www.w3.org/2000/svg">
<path d="M40 18.765C39.92 9.98503 32.8 2.90503 24 2.90503C15.2 2.90503 8.08 9.98503 8 18.765V30.765C8 39.605 15.16 46.765 24 46.765C32.84 46.765 40 39.605 40 30.765V18.765ZM36 18.765H26V7.08503C31.62 8.02503 35.92 12.885 36 18.765ZM22 7.08503V18.765H12C12.08 12.885 16.38 8.02503 22 7.08503ZM36 30.765C36 37.385 30.62 42.765 24 42.765C17.38 42.765 12 37.385 12 30.765V22.765H36V30.765Z" fill="white"/>
</svg>
