<svg width="110" height="111" viewBox="0 0 110 111" fill="none" xmlns="http://www.w3.org/2000/svg">
<path d="M54.5777 85.835C54.26 85.835 53.944 85.7521 53.6659 85.591L50.7636 83.8737C50.3303 83.6313 50.5418 83.5454 50.6848 83.4955C51.263 83.2949 51.38 83.2486 51.9972 82.8987C52.0613 82.8623 52.1466 82.8763 52.213 82.9152L54.4428 84.2389C54.5235 84.2837 54.6375 84.2837 54.7119 84.2389L63.4051 79.2214C63.486 79.1753 63.5378 79.0822 63.5378 78.9862V68.954C63.5378 68.8558 63.486 68.7642 63.4029 68.7144L54.7135 63.7013C54.6332 63.6543 54.5265 63.6543 54.4456 63.7013L45.7583 68.7159C45.6739 68.7642 45.6204 68.8589 45.6204 68.954V78.9862C45.6204 79.0822 45.6739 79.1731 45.7575 79.2186L48.1389 80.5945C49.431 81.2406 50.2222 80.4796 50.2222 79.7152V69.8102C50.2222 69.6701 50.3347 69.5598 50.4748 69.5598H51.577C51.7149 69.5598 51.8289 69.6701 51.8289 69.8102V79.7152C51.8289 81.4397 50.8898 82.4286 49.255 82.4286C48.7525 82.4286 48.3569 82.4286 47.2526 81.8844L44.973 80.5721C44.4099 80.2466 44.0613 79.6379 44.0613 78.9862V68.954C44.0613 68.3023 44.4099 67.6936 44.973 67.3696L53.6659 62.3463C54.216 62.0354 54.9472 62.0354 55.4929 62.3463L64.1854 67.3696C64.7483 67.6952 65.0984 68.3023 65.0984 68.954V78.9862C65.0984 79.6379 64.7483 80.2444 64.1854 80.5721L55.4929 85.591C55.215 85.7521 54.8997 85.835 54.5777 85.835Z" fill="white"/>
<path d="M57.2629 78.9233C53.4588 78.9233 52.662 77.1773 52.662 75.7127C52.662 75.5734 52.7738 75.4622 52.9131 75.4622H54.037C54.1626 75.4622 54.2672 75.5525 54.2868 75.675C54.4565 76.8191 54.9625 77.3967 57.2629 77.3967C59.0942 77.3967 59.8739 76.9823 59.8739 76.0108C59.8739 75.4507 59.6528 75.0348 56.8068 74.7561C54.4282 74.5209 52.9571 73.9954 52.9571 72.0927C52.9571 70.3386 54.4354 69.2926 56.9143 69.2926C59.6992 69.2926 61.0772 70.2592 61.2517 72.3329C61.2583 72.4045 61.233 72.473 61.1854 72.5263C61.1377 72.5762 61.0714 72.6066 61.0013 72.6066H59.873C59.7562 72.6066 59.6528 72.5235 59.6291 72.4101C59.3584 71.2062 58.7002 70.8214 56.9143 70.8214C54.9148 70.8214 54.6824 71.518 54.6824 72.04C54.6824 72.6723 54.9566 72.8562 57.6563 73.2135C60.3278 73.5667 61.5969 74.0667 61.5969 75.9444C61.5969 77.8384 60.0175 78.9233 57.2629 78.9233Z" fill="white"/>
<path d="M67.8481 68.2868H68.1404C68.3793 68.2868 68.4241 68.1186 68.4241 68.0211C68.4241 67.7637 68.2466 67.7637 68.1491 67.7637H67.8481V68.2868ZM67.493 67.4623H68.1404C68.3621 67.4623 68.7967 67.4623 68.7967 67.9591C68.7967 68.3048 68.5749 68.3756 68.4415 68.42C68.6992 68.4376 68.7166 68.6062 68.7518 68.8454C68.7699 68.9959 68.7967 69.2534 68.8493 69.3417H68.4509C68.4415 69.2534 68.3793 68.7744 68.3793 68.7481C68.3534 68.6415 68.3173 68.5886 68.1846 68.5886H67.8569V69.3417H67.493V67.4623ZM66.7177 68.3975C66.7177 69.1779 67.3472 69.8074 68.1182 69.8074C68.8985 69.8074 69.5278 69.1646 69.5278 68.3975C69.5278 67.6177 68.8898 66.9971 68.1182 66.9971C67.3559 66.9971 66.7177 67.6085 66.7177 68.3975M69.7978 68.4023C69.7978 69.3241 69.0441 70.0776 68.1225 70.0776C67.2093 70.0776 66.447 69.333 66.447 68.4023C66.447 67.4538 67.2273 66.7266 68.1225 66.7266C69.0269 66.7266 69.7978 67.4538 69.7978 68.4023" fill="white"/>
<path fill-rule="evenodd" clip-rule="evenodd" d="M27.6583 46.5849C27.6583 46.1843 27.4474 45.8161 27.1017 45.6176L17.8852 40.3136C17.7294 40.2218 17.5547 40.1741 17.378 40.167H17.2827C17.1064 40.1741 16.9319 40.2218 16.7737 40.3136L7.55727 45.6176C7.21368 45.8161 7 46.1843 7 46.5849L7.02024 60.867C7.02024 61.0657 7.12338 61.2505 7.29811 61.3479C7.46914 61.4504 7.68065 61.4504 7.85103 61.3479L13.3285 58.2115C13.6749 58.0058 13.8857 57.6426 13.8857 57.2455V50.573C13.8857 50.1753 14.0964 49.8071 14.4415 49.6093L16.7737 48.266C16.9476 48.1657 17.1376 48.1165 17.3317 48.1165C17.5216 48.1165 17.7164 48.1657 17.8852 48.266L20.2168 49.6093C20.5619 49.8071 20.7734 50.1753 20.7734 50.573V57.2455C20.7734 57.6426 20.9871 58.008 21.3314 58.2115L26.8073 61.3479C26.9789 61.4504 27.1935 61.4504 27.3637 61.3479C27.5334 61.2505 27.6402 61.0657 27.6402 60.867L27.6583 46.5849Z" fill="white"/>
<path fill-rule="evenodd" clip-rule="evenodd" d="M71.1493 54.0215C71.1493 54.1208 71.0962 54.2128 71.01 54.2622L67.8444 56.087C67.7584 56.1364 67.6524 56.1364 67.5665 56.087L64.4008 54.2622C64.3145 54.2128 64.2616 54.1208 64.2616 54.0215V50.3661C64.2616 50.2669 64.3145 50.1748 64.4006 50.125L67.5661 48.2967C67.6524 48.2469 67.7584 48.2469 67.8448 48.2967L71.0102 50.125C71.0962 50.1748 71.1493 50.2669 71.1493 50.3661V54.0215ZM72.0047 26.9514C71.8321 26.8557 71.6217 26.8577 71.4513 26.9578C71.2814 27.0576 71.1767 27.2404 71.1767 27.4378V41.5818C71.1767 41.7208 71.1023 41.8497 70.9822 41.9193C70.8616 41.9889 70.713 41.9889 70.5924 41.9193L68.2839 40.5893C67.9397 40.3906 67.516 40.3911 67.1715 40.5895L57.9516 45.9105C57.6069 46.1094 57.3948 46.4769 57.3948 46.8747V57.5188C57.3948 57.9166 57.6069 58.2839 57.9512 58.4832L67.1709 63.8081C67.5156 64.007 67.9399 64.007 68.2846 63.8081L77.5058 58.4832C77.8501 58.2839 78.0624 57.9166 78.0624 57.5188V30.9855C78.0624 30.5821 77.844 30.21 77.4914 30.0133L72.0047 26.9514Z" fill="white"/>
<path fill-rule="evenodd" clip-rule="evenodd" d="M102.706 50.2706C103.049 50.0715 103.26 49.7046 103.26 49.308V46.7285C103.26 46.3318 103.049 45.9648 102.706 45.7657L93.5448 40.4469C93.2001 40.2464 92.7747 40.2462 92.4292 40.4453L83.2125 45.7663C82.868 45.9652 82.6559 46.3325 82.6559 46.7303V57.3716C82.6559 57.772 82.8707 58.1412 83.2182 58.339L92.3776 63.5582C92.7153 63.7509 93.1294 63.7531 93.4693 63.5642L99.0094 60.485C99.1852 60.3871 99.2947 60.2028 99.2958 60.0021C99.2971 59.8013 99.1902 59.6155 99.0164 59.5156L89.7412 54.192C89.5679 54.0928 89.4613 53.9082 89.4613 53.7091V50.3742C89.4613 50.1753 89.5675 49.9912 89.7401 49.892L92.6268 48.2278C92.7984 48.1286 93.0106 48.1286 93.1825 48.2278L96.0705 49.892C96.243 49.9912 96.349 50.1753 96.349 50.3742V52.998C96.349 53.1973 96.4556 53.3814 96.6282 53.4807C96.8008 53.5803 97.0134 53.5795 97.1855 53.4796L102.706 50.2706Z" fill="white"/>
<path fill-rule="evenodd" clip-rule="evenodd" d="M92.8512 49.7722C92.9173 49.7339 92.9987 49.7339 93.0649 49.7722L94.834 50.7927C94.9001 50.831 94.9408 50.9015 94.9408 50.9779V53.0207C94.9408 53.0973 94.9001 53.1676 94.834 53.2059L93.0649 54.2266C92.9987 54.2649 92.9173 54.2649 92.8512 54.2266L91.0834 53.2059C91.0173 53.1676 90.9766 53.0973 90.9766 53.0207V50.9779C90.9766 50.9015 91.0173 50.831 91.0834 50.7927L92.8512 49.7722Z" fill="white"/>
<path d="M41.9139 40.5578L32.7704 45.8354C32.4283 46.0326 32.2179 46.3973 32.2179 46.7918V57.3558C32.2179 57.7506 32.4283 58.1151 32.7699 58.3126L41.9135 63.5947C42.2553 63.792 42.6766 63.792 43.0187 63.5947L52.1642 58.3126C52.5061 58.1151 52.7165 57.7506 52.7165 57.3558V46.7922C52.7165 46.3973 52.5061 46.0326 52.164 45.8354L43.0183 40.5578C42.8474 40.459 42.6568 40.4098 42.466 40.4098C42.2754 40.4098 42.0845 40.459 41.9139 40.5578" fill="url(#paint0_linear_1620_885)"/>
<g opacity="0.660004">
<path d="M52.1178 45.8355L43.0127 40.5576C42.9216 40.5049 42.8241 40.4675 42.724 40.4429L32.4324 58.0485C32.519 58.1527 32.6234 58.2435 32.7431 58.3127L41.9025 63.5947C42.1756 63.7522 42.4916 63.7818 42.7823 63.6878L52.3976 46.0809C52.3223 45.9848 52.2303 45.9003 52.1178 45.8355Z" fill="#4B4B4B"/>
</g>
<path d="M42.4001 40.4117C42.2323 40.4222 42.0665 40.4709 41.9161 40.5577L32.8577 45.7849L42.6982 63.7119C42.8011 63.6875 42.9017 63.6497 42.997 63.5946L52.1209 58.3126C52.4623 58.115 52.6295 57.7505 52.6295 57.3558V57.3145L42.7591 40.452C42.6601 40.4244 42.5581 40.4104 42.4562 40.4104C42.4375 40.4104 42.4188 40.4109 42.4001 40.4117" fill="url(#paint1_linear_1620_885)"/>
<defs>
<linearGradient id="paint0_linear_1620_885" x1="32.2177" y1="52.0762" x2="52.7165" y2="52.0762" gradientUnits="userSpaceOnUse">
<stop stop-color="white"/>
<stop offset="0.00530134" stop-color="white"/>
<stop offset="0.725388" stop-color="#AFB1B3"/>
<stop offset="1" stop-color="#AFB1B3"/>
</linearGradient>
<linearGradient id="paint1_linear_1620_885" x1="32.0761" y1="52.0612" x2="53.222" y2="52.0612" gradientUnits="userSpaceOnUse">
<stop stop-color="#AFB1B3"/>
<stop offset="0.274612" stop-color="#AFB1B3"/>
<stop offset="0.994699" stop-color="white"/>
<stop offset="1" stop-color="white"/>
</linearGradient>
</defs>
</svg>
