<svg width="110" height="111" viewBox="0 0 110 111" fill="none" xmlns="http://www.w3.org/2000/svg">
<g clip-path="url(#clip0_1620_803)">
<path d="M54.6794 13.8357C51.2008 13.8518 47.8787 14.1485 44.9557 14.6657C36.3447 16.187 34.7813 19.3712 34.7813 25.2433V32.9986H55.1301V35.5837H34.7813H27.1446C21.2306 35.5837 16.0522 39.1383 14.4325 45.9004C12.5642 53.6513 12.4813 58.488 14.4325 66.5812C15.879 72.6055 19.3333 76.8979 25.2472 76.8979H32.2436V67.601C32.2436 60.8846 38.0548 54.9601 44.9557 54.9601H65.2807C70.9385 54.9601 75.4551 50.3017 75.4551 44.6197V25.2433C75.4551 19.7287 70.8029 15.5861 65.2807 14.6657C61.7851 14.0838 58.1581 13.8195 54.6794 13.8357ZM43.675 20.0731C45.7769 20.0731 47.4933 21.8176 47.4933 23.9626C47.4933 26.1 45.7769 27.8284 43.675 27.8284C41.5655 27.8284 39.8566 26.1 39.8566 23.9626C39.8566 21.8176 41.5655 20.0731 43.675 20.0731Z" fill="white"/>
<path d="M77.9927 35.5837V44.6197C77.9927 51.6252 72.0535 57.5215 65.2807 57.5215H44.9556C39.3883 57.5215 34.7813 62.2864 34.7812 67.8619V87.2383C34.7812 92.753 39.5766 95.9966 44.9556 97.5787C51.3969 99.4727 57.5738 99.815 65.2807 97.5787C70.4036 96.0955 75.4551 93.1104 75.4551 87.2383V79.483H55.13V76.8979H75.4551H85.6295C91.5434 76.8979 93.7472 72.7728 95.8038 66.5812C97.9283 60.2071 97.8379 54.0773 95.8038 45.9004C94.3423 40.0131 91.5509 35.5837 85.6295 35.5837H77.9927ZM66.5614 84.6532C68.6708 84.6532 70.3797 86.3816 70.3797 88.519C70.3797 90.664 68.6708 92.4085 66.5614 92.4085C64.4595 92.4085 62.743 90.664 62.743 88.519C62.743 86.3816 64.4595 84.6532 66.5614 84.6532Z" fill="white"/>
</g>
<defs>
<clipPath id="clip0_1620_803">
<rect width="84.2411" height="85" fill="white" transform="translate(13 13.835)"/>
</clipPath>
</defs>
</svg>
