<svg width="110" height="111" viewBox="0 0 110 111" fill="none" xmlns="http://www.w3.org/2000/svg">
<g clip-path="url(#clip0_1620_752)">
<mask id="mask0_1620_752" style="mask-type:luminance" maskUnits="userSpaceOnUse" x="7" y="26" width="97" height="59">
<path d="M7 26.835H103.25V84.585H7V26.835Z" fill="white"/>
</mask>
<g mask="url(#mask0_1620_752)">
<path fill-rule="evenodd" clip-rule="evenodd" d="M55.125 26.835C42.2917 26.835 34.2708 33.2516 31.0625 46.085C35.875 39.6683 41.4896 37.262 47.9063 38.8662C51.5673 39.7806 54.1839 42.4382 57.0803 45.3773C61.7983 50.1667 67.2596 55.71 79.1875 55.71C92.0208 55.71 100.042 49.2933 103.25 36.46C98.4375 42.8766 92.8229 45.2829 86.4062 43.6787C82.7452 42.7643 80.1286 40.1068 77.2322 37.1676C72.5142 32.3782 67.0529 26.835 55.125 26.835ZM31.0625 55.71C18.2292 55.71 10.2083 62.1266 7 74.96C11.8125 68.5433 17.4271 66.137 23.8437 67.7412C27.5048 68.6574 30.1214 71.3132 33.0178 74.2523C37.7358 79.0417 43.1971 84.585 55.125 84.585C67.9583 84.585 75.9792 78.1683 79.1875 65.335C74.375 71.7516 68.7604 74.1579 62.3437 72.5537C58.6827 71.6393 56.0661 68.9818 53.1697 66.0426C48.4517 61.2532 42.9904 55.71 31.0625 55.71Z" fill="white"/>
</g>
</g>
<defs>
<clipPath id="clip0_1620_752">
<rect width="96.25" height="58.8194" fill="white" transform="translate(7 26.835)"/>
</clipPath>
</defs>
</svg>
