<svg width="22" height="22" viewBox="0 0 22 22" fill="none" xmlns="http://www.w3.org/2000/svg">
<path id="Vector" d="M7.93167 3.42833C7.72167 4.175 7.61667 4.95667 7.61667 5.75C7.61667 10.51 11.49 14.3833 16.25 14.3833C17.0433 14.3833 17.825 14.2783 18.5717 14.0683C17.3583 17.055 14.4183 19.1667 11 19.1667C6.49667 19.1667 2.83333 15.5033 2.83333 11C2.83333 7.58167 4.945 4.64167 7.93167 3.42833ZM11 0.5C5.20167 0.5 0.5 5.20167 0.5 11C0.5 16.7983 5.20167 21.5 11 21.5C16.7983 21.5 21.5 16.7983 21.5 11C21.5 10.4633 21.4533 9.92667 21.3833 9.41333C20.24 11.0117 18.3733 12.05 16.25 12.05C12.7733 12.05 9.95 9.22667 9.95 5.75C9.95 3.63833 10.9883 1.76 12.5867 0.616667C12.0733 0.546667 11.5367 0.5 11 0.5Z" fill="white"/>
</svg>
