<svg width="106" height="42" viewBox="0 0 106 42" fill="none" xmlns="http://www.w3.org/2000/svg">
<path d="M0 4.83496C0 2.62582 1.79086 0.834961 4 0.834961H10V41.835H4C1.79086 41.835 0 40.0441 0 37.835V4.83496Z" fill="white"/>
<rect width="63" height="41" transform="translate(10 0.834961)" fill="white"/>
<path d="M22.1719 29.835L17.5938 13.835H21.2891L23.9375 24.9521H24.0703L26.9922 13.835H30.1562L33.0703 24.9756H33.2109L35.8594 13.835H39.5547L34.9766 29.835H31.6797L28.6328 19.374H28.5078L25.4688 29.835H22.1719ZM45.4824 30.0693C44.248 30.0693 43.1855 29.8193 42.2949 29.3193C41.4095 28.8141 40.7272 28.1006 40.248 27.1787C39.7689 26.2516 39.5293 25.1553 39.5293 23.8896C39.5293 22.6553 39.7689 21.5719 40.248 20.6396C40.7272 19.7074 41.4017 18.9808 42.2715 18.46C43.1465 17.9391 44.1725 17.6787 45.3496 17.6787C46.1413 17.6787 46.8783 17.8063 47.5605 18.0615C48.248 18.3115 48.847 18.6891 49.3574 19.1943C49.873 19.6995 50.2741 20.335 50.5605 21.1006C50.847 21.861 50.9902 22.7516 50.9902 23.7725V24.6865H40.8574V22.624H47.8574C47.8574 22.1449 47.7533 21.7204 47.5449 21.3506C47.3366 20.9808 47.0475 20.6917 46.6777 20.4834C46.3132 20.2699 45.8887 20.1631 45.4043 20.1631C44.8991 20.1631 44.4512 20.2803 44.0605 20.5146C43.6751 20.7438 43.373 21.0537 43.1543 21.4443C42.9355 21.8298 42.8236 22.2594 42.8184 22.7334V24.6943C42.8184 25.2881 42.9277 25.8011 43.1465 26.2334C43.3704 26.6657 43.6855 26.999 44.0918 27.2334C44.498 27.4678 44.9798 27.585 45.5371 27.585C45.9069 27.585 46.2454 27.5329 46.5527 27.4287C46.86 27.3245 47.123 27.1683 47.3418 26.96C47.5605 26.7516 47.7272 26.4964 47.8418 26.1943L50.9199 26.3975C50.7637 27.137 50.4434 27.7829 49.959 28.335C49.4798 28.8818 48.86 29.3089 48.0996 29.6162C47.3444 29.9183 46.472 30.0693 45.4824 30.0693ZM53.2246 29.835V13.835H56.5527V19.8506H56.6543C56.8001 19.5277 57.0111 19.1995 57.2871 18.8662C57.5684 18.5277 57.9329 18.2464 58.3809 18.0225C58.834 17.7933 59.3965 17.6787 60.0684 17.6787C60.9434 17.6787 61.7507 17.9079 62.4902 18.3662C63.2298 18.8193 63.821 19.5042 64.2637 20.4209C64.7064 21.3324 64.9277 22.4756 64.9277 23.8506C64.9277 25.1891 64.7116 26.3193 64.2793 27.2412C63.8522 28.1579 63.2689 28.8532 62.5293 29.3271C61.7949 29.7959 60.972 30.0303 60.0605 30.0303C59.4147 30.0303 58.8652 29.9235 58.4121 29.71C57.9642 29.4964 57.597 29.2282 57.3105 28.9053C57.0241 28.5771 56.8053 28.2464 56.6543 27.9131H56.5059V29.835H53.2246ZM56.4824 23.835C56.4824 24.5485 56.5814 25.1709 56.7793 25.7021C56.9772 26.2334 57.2637 26.6475 57.6387 26.9443C58.0137 27.236 58.4694 27.3818 59.0059 27.3818C59.5475 27.3818 60.0059 27.2334 60.3809 26.9365C60.7559 26.6344 61.0397 26.2178 61.2324 25.6865C61.4303 25.1501 61.5293 24.5329 61.5293 23.835C61.5293 23.1423 61.4329 22.5329 61.2402 22.0068C61.0475 21.4808 60.7637 21.0693 60.3887 20.7725C60.0137 20.4756 59.5527 20.3271 59.0059 20.3271C58.4642 20.3271 58.0059 20.4704 57.6309 20.7568C57.2611 21.0433 56.9772 21.4495 56.7793 21.9756C56.5814 22.5016 56.4824 23.1214 56.4824 23.835Z" fill="black"/>
<path fill-rule="evenodd" clip-rule="evenodd" d="M100.892 11.462C100.689 10.831 100.056 10.321 98.2628 9.32704C97.6077 8.96855 96.605 8.41358 95.6976 7.91134C95.3142 7.69913 94.9478 7.49634 94.6318 7.32177C94.0447 6.99258 93.3771 6.62126 92.8037 6.30229C92.3382 6.04336 91.9347 5.81893 91.6866 5.67952C91.1327 5.377 90.1392 4.82382 89.4886 4.45215C85.9191 2.43823 83.3695 1.05528 83.0442 0.942919C82.8294 0.872519 81.0593 0.841939 73 0.834961V41.835H82.7629L83.1761 41.6448C83.3959 41.5497 84.8378 40.7632 86.3851 39.9075C86.916 39.6122 87.5976 39.2347 88.3399 38.8234C89.7491 38.0428 91.3774 37.1408 92.6097 36.4501C99.6515 32.5481 100.397 32.1536 100.692 31.5338C100.742 31.4301 100.778 31.3201 100.83 31.1863C101.006 30.7282 101.006 30.5467 100.997 21.2377C100.988 14.7378 100.962 11.6608 100.892 11.462ZM88.627 24.4859C89.6557 23.9868 90.2975 23.2244 90.6403 22.09C91.2821 19.9574 89.8491 17.6522 87.6511 17.2802C85.0663 16.8536 82.8156 19.5217 83.5893 22.09C83.9322 23.2244 84.574 23.9868 85.6026 24.4859C86.1477 24.7582 86.262 24.7763 87.1148 24.7763C87.9676 24.7763 88.0819 24.7582 88.627 24.4859Z" fill="white"/>
</svg>
