<svg width="37" height="37" viewBox="0 0 37 37" fill="none" xmlns="http://www.w3.org/2000/svg">
<path d="M26.4368 22.417C26.0952 22.2472 23.8748 21.2285 23.5332 21.0587C23.1916 20.8889 22.85 20.8889 22.5084 21.2285C22.1668 21.568 21.4836 22.5868 21.142 22.9263C20.9712 23.2659 20.6296 23.2659 20.288 23.0961C19.0924 22.5868 17.8968 21.9076 16.872 21.0587C16.018 20.2097 15.164 19.191 14.4808 18.1723C14.31 17.8327 14.4808 17.4931 14.6516 17.3233C14.8224 17.1536 14.9932 16.814 15.3348 16.6442C15.5056 16.4744 15.6764 16.1348 15.6764 15.965C15.8472 15.7953 15.8472 15.4557 15.6764 15.2859C15.5056 15.1161 14.6516 13.0787 14.31 12.2297C14.1392 11.0412 13.7976 11.0412 13.456 11.0412C13.2852 11.0412 12.9436 11.0412 12.602 11.0412C12.2604 11.0412 11.748 11.3808 11.5772 11.5506C10.5524 12.5693 10.04 13.7578 10.04 15.1161C10.2108 16.6442 10.7232 18.1723 11.748 19.5306C13.6268 22.2472 16.018 24.4544 18.9216 25.8127C19.7756 26.1523 20.4588 26.4919 21.3128 26.6617C22.1668 27.0012 23.0208 27.0012 24.0456 26.8315C25.2412 26.6617 26.266 25.8127 26.9492 24.794C27.2908 24.1149 27.2908 23.4357 27.12 22.7566C27.12 22.7566 26.7784 22.5868 26.4368 22.417ZM30.7069 6.96629C24.0456 0.344569 13.2852 0.344569 6.62401 6.96629C1.1584 12.3995 0.133598 20.7191 3.8912 27.3408L1.5 36L10.5524 33.623C13.1144 34.9813 15.8472 35.6604 18.58 35.6604C27.974 35.6604 35.4893 28.1898 35.4893 18.8514C35.6601 14.437 33.7813 10.1923 30.7069 6.96629ZM26.0952 30.7366C23.8748 32.0949 21.3128 32.9438 18.58 32.9438C16.018 32.9438 13.6268 32.2647 11.4064 31.0762L10.894 30.7366L5.59921 32.0949L6.96561 27.0012L6.62401 26.4919C2.5248 19.7004 4.57441 11.211 11.2356 6.96629C17.8968 2.7216 26.4368 4.92884 30.5361 11.3808C34.6353 18.0025 32.7565 26.6617 26.0952 30.7366Z" fill="white"/>
</svg>
